<?xml version="1.0" encoding="UTF-8"?>
<svg width="2880px" height="532px" viewBox="0 0 2880 532" version="1.1" xmlns="http://www.w3.org/2000/svg" xmlns:xlink="http://www.w3.org/1999/xlink">
    <!-- Generator: Sketch 48.2 (47327) - http://www.bohemiancoding.com/sketch -->
    <title>Content</title>
    <desc>Created with Sketch.</desc>
    <defs></defs>
    <g id="Desktop" stroke="none" stroke-width="1" fill="none" fill-rule="evenodd" transform="translate(0.000000, -706.000000)">
        <g id="Content" transform="translate(0.000000, 717.000000)">
            <g id="Right" transform="translate(1541.000000, -39.000000)">
                <g id="Bar" transform="translate(0.000000, 180.000000)" fill="#656565">
                    <polygon id="Path-3" points="1340 186 1142 0 916 218 672 104 432 304 236 164 0 380 1340 380"></polygon>
                </g>
                <g id="Airplane" transform="translate(1151.776388, 109.728718) rotate(304.000000) translate(-1151.776388, -109.728718) translate(1078.776388, 21.728718)" fill="#FFFFFF" fill-opacity="0.516898777">
                    <path d="M92.2165979,28.8203071 C92.273836,29.0076317 92.2997459,29.2102542 92.2907525,29.4150416 C92.1689965,32.1893692 91.8856117,38.6416747 91.5089931,47.215595 C114.294967,47.215595 134.447564,47.215595 142.16824,47.215595 C143.055913,47.215595 143.907081,47.6662889 144.534354,48.467436 C145.162235,49.2693602 145.514505,50.3556877 145.514505,51.4894158 C145.514505,61.2313962 145.514505,84.2455328 145.514505,84.2455328 L89.8822963,84.2455328 C89.2700146,98.1830175 88.6401823,112.519927 88.1171345,124.426955 C93.6951555,124.426955 98.4667084,124.426955 101.481322,124.426955 C102.389288,124.426955 103.260765,124.885269 103.902969,125.701424 C104.544566,126.517579 104.905806,127.624334 104.905806,128.779008 C104.905806,134.251729 104.905806,142.941924 104.905806,142.941924 L86.3246288,142.941924 C84.6331276,147.4521 81.4042027,150.817748 77.5256985,151.96677 C77.5256985,158.764083 77.5256985,166.772376 77.5256985,171.403062 C77.5256985,172.421968 77.2047618,173.399525 76.6340014,174.119625 C76.0632411,174.839725 75.288417,175.244635 74.4814374,175.244635 C73.3924787,175.244635 72.171806,175.244635 71.1038721,175.244635 C69.5536054,175.244635 68.2964487,173.658543 68.2964487,171.702648 C68.2964487,166.97298 68.2964487,158.368235 68.2964487,151.284836 C65.2298074,149.755909 62.7331639,146.753129 61.3517657,142.941924 L40.6086992,142.941924 C40.6086992,142.941924 40.6086992,135.858534 40.6086992,130.454599 C40.6086992,128.856295 41.1079891,127.322913 41.9977104,126.192972 C42.8868234,125.062257 44.09339,124.426955 45.3516493,124.426955 C48.8315175,124.426955 53.9461791,124.426955 59.7394386,124.426955 C59.3085532,112.521861 58.7896767,98.1844516 58.2852256,84.2455328 L1.13686838e-13,84.2455328 C1.13686838e-13,84.2455328 1.13686838e-13,61.1707856 1.13686838e-13,51.45134 C1.13686838e-13,49.1123944 1.48513368,47.215595 3.31645379,47.215595 C11.3440265,47.215595 32.9377956,47.215595 56.9450913,47.215595 C56.6336501,38.6103732 56.3994922,32.1411163 56.2995275,29.3808104 C56.2881059,29.0544453 56.3656593,28.7348674 56.5174677,28.4756067 C57.2368143,19.1077741 64.9473557,10.4961745 74.3532195,10.4961745 C83.9001274,10.4961745 91.7004878,18.6061594 92.2165979,28.8203071 Z" id="Combined-Shape"></path>
                    <path d="M81.4546353,9.78971121 C81.5331042,10.04847 81.6028689,10.2914618 81.6660462,10.5115098 L70.2833048,10.5115098 C70.3186352,10.3931861 70.3559465,10.2682284 70.3956085,10.1377526 C61.1678312,11.435087 45.8469558,12.8217515 38.009273,13.4951948 C36.7339219,13.6035406 35.4738334,13.1340421 34.5336511,12.2002982 C33.5934688,11.2658978 33.0586638,9.95195863 33.0586638,8.57563859 C33.0586638,8.13240576 33.0586638,7.68588972 33.0586638,7.24659673 C33.0586638,6.01342448 33.5403546,4.83672338 34.3859082,4.00344565 C35.2314617,3.16951127 36.3633435,2.75648393 37.5056039,2.8641731 C45.5714818,3.62894736 62.6269459,5.32226682 71.8102919,6.78985285 C72.7039626,5.36327537 74.0510887,4.18025372 76.1631154,4.18025372 C77.961938,4.18025372 79.17145,5.18592802 80.008838,6.46093733 C88.5097185,5.01966277 104.339979,3.35249106 112.500752,2.53522001 C113.82459,2.40401097 115.138061,2.88935055 116.119201,3.87341838 C117.10095,4.85815565 117.660121,6.24990872 117.660121,7.70927462 C117.660121,7.72534104 117.660121,7.74140745 117.660121,7.75747387 C117.660121,9.27173335 117.083266,10.7170411 116.068589,11.7432833 C115.053911,12.7695255 113.694706,13.2829813 112.320257,13.159136 C104.557417,12.4567565 90.1369788,11.0776015 81.4546353,9.78971121 Z" id="Combined-Shape" transform="translate(75.359392, 8.012330) rotate(3.000000) translate(-75.359392, -8.012330) "></path>
                </g>
            </g>
            <g id="Clouds" fill="#FFFFFF">
                <g id="Front-Cloud" transform="translate(0.000000, 170.561255)" fill-opacity="0.660000026">
                    <path d="M1.38999923e-13,0.276160068 C2.63685543,0.092993148 5.29638556,0 7.97598522,0 C60.6691462,0 105.601519,35.9599953 122.962897,86.4409151 C132.275099,82.5922018 142.255327,80.2066741 152.663535,79.5441174 C175.686009,42.8576598 214.550644,18.7565982 258.616705,18.7565982 C329.301835,18.7565982 386.603455,80.7697557 386.603455,157.266862 C386.603455,233.763969 329.301835,295.777126 258.616705,295.777126 C239.613365,295.777126 221.577353,291.294964 205.362063,283.254201 C191.414498,291.249169 175.509383,295.777126 158.627056,295.777126 C137.6085,295.777126 118.104654,288.75864 102.007374,276.769078 C83.9976694,296.5206 58.9732891,308.762463 31.3069033,308.762463 C20.3681679,308.762463 9.84244497,306.84875 4.60076421e-13,303.313811 L4.54747351e-13,0.276160068 Z" id="Combined-Shape"></path>
                </g>
                <g id="Back-Cloud" transform="translate(392.902929, 169.000000) scale(-1, 1) translate(-392.902929, -169.000000) translate(80.902929, 0.000000)" opacity="0.168251812">
                    <path d="M254.569267,80.3621695 C280.281593,32.3180927 328.300222,0 383.293654,0 C454.67384,0 514.303276,54.4476879 528.655691,127.060149 C529.96722,126.998756 531.286028,126.967742 532.611529,126.967742 C582.312012,126.967742 622.602213,170.570743 622.602213,224.357771 C622.602213,278.144799 582.312012,321.747801 532.611529,321.747801 C507.520448,321.747801 484.827758,310.634733 468.506771,292.708609 C444.377942,311.008654 414.994644,321.747801 383.293654,321.747801 C353.16515,321.747801 325.13011,312.047634 301.709604,295.375661 C279.319405,321.366376 247.402504,337.618768 211.978055,337.618768 C182.973179,337.618768 156.319771,326.723118 135.321828,308.507476 C122.009791,316.924523 106.520711,321.747801 89.9906839,321.747801 C40.2902016,321.747801 0,278.144799 0,224.357771 C0,170.570743 40.2902016,126.967742 89.9906839,126.967742 C97.2002441,126.967742 104.211789,127.885256 110.93106,129.618275 C133.053366,94.897624 170.060049,72.1407625 211.978055,72.1407625 C226.953553,72.1407625 241.302206,75.0452775 254.569267,80.3621695 Z" id="Combined-Shape"></path>
                </g>
            </g>
        </g>
    </g>
</svg>