<?xml version="1.0" encoding="UTF-8"?>
<svg width="756px" height="568px" viewBox="0 0 756 568" version="1.1" xmlns="http://www.w3.org/2000/svg" xmlns:xlink="http://www.w3.org/1999/xlink">
    <!-- Generator: Sketch 47.1 (45422) - http://www.bohemiancoding.com/sketch -->
    <title>Vector</title>
    <desc>Created with Sketch.</desc>
    <defs>
        <linearGradient x1="0%" y1="100%" x2="100%" y2="100%" id="linearGradient-1">
            <stop stop-color="#468EB6" offset="0%"></stop>
            <stop stop-color="#146EB5" offset="49.9023266%"></stop>
            <stop stop-color="#5AC1E1" offset="100%"></stop>
        </linearGradient>
        <linearGradient x1="0%" y1="100%" x2="100%" y2="100%" id="linearGradient-2">
            <stop stop-color="#468EB6" offset="0%"></stop>
            <stop stop-color="#146EB5" offset="38.5258694%"></stop>
            <stop stop-color="#1771B8" offset="67.1884092%"></stop>
            <stop stop-color="#5AC1E1" offset="100%"></stop>
        </linearGradient>
    </defs>
    <g id="Page-1" stroke="none" stroke-width="1" fill="none" fill-rule="evenodd">
        <g id="Traced-Logo" transform="translate(-164.000000, -132.000000)">
            <g id="Vector" transform="translate(164.000000, 132.000000)">
                <g id="WINGS" transform="translate(0.000000, 406.000000)" fill="#959595">
                    <path d="M329.5,0.581 C328.4,0.751 324.885,1.176 321.688,1.525 C318.22,1.903 315.667,2.705 315.357,3.511 C315.072,4.254 317.312,8.606 320.336,13.181 L325.833,21.5 L324.12,89.5 C323.179,126.9 322.589,158.063 322.811,158.75 C323.244,160.095 333.558,160.492 337.896,159.332 L340.292,158.69 L339.607,133.595 C337.691,63.346 337.135,38.532 337.468,38.198 C337.867,37.8 350.854,55.076 366,76.15 C371.225,83.421 377.738,92.323 380.474,95.934 C383.209,99.546 387.484,105.445 389.974,109.045 C394.709,115.892 407.389,133.358 419.802,150.133 L427.103,160 L434.083,160 C438.793,160 441.189,159.594 441.45,158.75 C441.663,158.063 442.155,139.95 442.542,118.5 C442.929,97.05 443.528,68.7 443.873,55.5 C444.218,42.3 444.5,25.2 444.5,17.5 L444.5,3.5 L438.071,3.687 C427.096,4.005 427.091,4.008 427.525,11.25 C428.093,20.745 430.175,122.159 429.808,122.525 C429.632,122.701 421.421,111.742 411.56,98.172 C404.00905,87.7776621 396.453049,77.3869942 388.892,67 C386.286,63.425 377.624,51.5 369.644,40.5 C343.922,5.042 341.527,1.866 339.816,0.925 C338.218,0.048 333.89,-0.097 329.5,0.581" id="Path"></path>
                    <path d="M561.5,1.566 C544.614,3.879 536.352,6.173 525.386,11.59 C507.412,20.469 493.679,37.153 487.995,57.016 C484.946,67.67 484.201,87.541 486.411,99.245 C490.128,118.929 500.782,136.352 514.999,145.995 C531.404,157.122 548.601,162.003 571.381,161.997 C589.68,161.993 613.959,158.034 616.5,154.641 C617.143,153.782 617.322,141.742 617,120.903 L616.5,88.5 L608.867,88.21 C600.878,87.907 580.349,89.317 579.434,90.233 C579.142,90.525 579.198,91.942 579.56,93.382 C580.027,95.243 580.872,96 582.483,96 C587.602,96 590.727,97.267 592.339,99.997 C593.761,102.403 594,106.21 594,126.404 L594,150 L583.088,150 C552.08,150 531.325,138.71 520.013,115.69 C513.55,102.537 511.738,94.049 511.648,76.5 C511.558,59.087 512.995,51.725 518.765,40.036 C525.583,26.224 538.06,16.913 554.208,13.587 C581.351,7.997 605.158,18.875 609.476,38.841 C610.082,41.643 610.545,42.088 612.349,41.604 C613.532,41.287 614.889,41.021 615.364,41.014 C616.793,40.991 615.018,8.719 613.5,7.131 C610.465,3.958 573.175,-0.033 561.5,1.566" id="Path"></path>
                    <path d="M20.5,3.483 C15.55,4.167 8.913,5.27 5.75,5.934 C0.059,7.129 -5.68434189e-12,7.178 -5.68434189e-12,10.684 C-5.68434189e-12,14.105 0.111,14.211 3.219,13.755 C8.131,13.034 12.705,14.741 15.372,18.292 C16.699,20.058 19.669,27.792 21.979,35.5 C24.287,43.2 28.873,58.05 32.17,68.5 C35.467,78.95 39.256,91.1 40.59,95.5 C44.266,107.628 54.808,141.407 57.91,151 L60.659,159.5 L66.651,159.793 C76.176,160.259 77.439,159.38 80.296,150.305 C81.647,146.012 85.972,133.275 89.906,122 C93.839,110.725 97.46,99.925 97.952,98 C99.117,93.437 109.417,64.25 110.105,63.562 C110.396,63.271 111.907,67.188 113.464,72.266 C115.02,77.345 120.504,95 125.65,111.5 L137.812,150.5 L140.618,159.5 L145.059,159.823 C147.502,160 151.307,159.876 153.515,159.547 C158.372,158.822 154.84,167.841 188.969,69 C193.812,54.975 200.078,36.975 202.893,29 C211.371,4.983 211.374,4.974 210.128,3.728 C209.295,2.895 206.99,2.891 201.28,3.714 C193.353,4.856 190,6.976 190,10.848 C190,11.742 185.902,26.88 180.894,44.487 C175.537827,63.3208336 170.195159,82.1585051 164.866,101 C161.059,114.475 157.563,126.4 157.098,127.5 C156.417,129.109 155.814,128.034 154.014,122 C152.783,117.875 148.397,103.925 144.266,91 C140.135,78.075 135.963,64.575 134.995,61 C132.817,52.96 117.146,4.045 116.32,2.709 C115.674,1.664 102.676,2.437 97.5,3.828 C93.644,4.865 93.291,7.261 95.813,15.276 C100.703,30.818 103.135,39.146 103.257,40.764 C103.406,42.74 101.549,48.925 89.073,88 C84.244,103.125 79.529,118.087 78.595,121.25 C77.662,124.413 76.55,127 76.126,127 C75.412,127 68.708,106.637 61.968,84 C60.412,78.775 56.811,67.075 53.966,58 C48.805,41.535 38,5.956 38,5.424 C38,5.269 37.293,4.436 36.429,3.571 C34.631,1.774 32.941,1.765 20.5,3.483" id="Path"></path>
                    <path d="M254,3.482 C243.879,4.815 232.899,6.768 232.33,7.336 C232.141,7.526 232.27,9.102 232.618,10.84 C233.213,13.817 233.507,14 237.691,14 C240.133,14 243.04,14.486 244.15,15.08 C249.012,17.682 249.056,18.368 248.972,90.538 C248.929,127.652 249.209,158.528 249.593,159.151 C250.317,160.322 266.889,159.747 270.317,158.432 C271.874,157.834 272,152.01 272,80.5 C272,10.948 271.842,3.153 270.418,2.607 C268.356,1.816 265.496,1.968 254,3.482" id="Path"></path>
                    <path d="M700,2.65 C669.78,6.704 653.918,23.496 655.19,50.089 C656.174,70.679 667.262,81.66 700.111,94.577 C719.129,102.055 726.322,106.791 730.197,114.387 C734.197,122.227 731.914,135.301 725.348,142.158 C718.359,149.456 699.864,153.137 687.803,149.631 C674.307,145.708 667.628,138.574 663.983,124.189 C663,120.312 662.618,119.909 660.195,120.189 L657.5,120.5 L657.678,137.893 C657.811,150.833 658.197,155.625 659.186,156.615 C663.865,161.293 704.273,163.436 718,159.733 C739.685,153.883 752.343,141.224 755.11,122.618 C757.199,108.573 753.724,97.724 744.032,88.032 C737.794,81.794 730.024,77.633 708.516,69.013 C693.547,63.015 688.739,60.391 684.292,55.796 C675.851,47.075 675.784,33.071 684.138,23.58 C693.938,12.447 715.068,10.963 728.149,20.488 C731.604,23.003 733.723,25.722 736.399,31.071 C738.38,35.03 740,39.157 740,40.243 C740,41.895 740.446,42.105 742.74,41.529 C744.247,41.151 745.709,40.471 745.99,40.017 C746.27,39.564 746.191,32.332 745.814,23.946 C745.33,13.202 744.726,8.297 743.769,7.34 C740.731,4.303 711.239,1.142 700,2.65" id="Path"></path>
                </g>
                <g id="Flame" transform="translate(218.000000, 0.000000)">
                    <path d="M322.07,4.25 C319.956,11.459 306.516,38.016 300.182,47.5 C291.664,60.254 284.387,68.708 274.279,77.591 C255.743,93.881 238.331,103.272 182.814,126.921 C136.203,146.776 113.288,157.73 86.5,172.962 C70.076,182.302 48.87,198.298 38.256,209.354 C2.89,246.191 -7.243,286.565 7.518,331.825 C10.905,342.21 17.591,356.035 19.536,356.674 C20.112,356.863 20.548,352.463 20.62,345.745 C20.862,323.134 27.592,307.147 45.482,286.683 C56.52,274.058 79.26,256.253 97.5,245.956 C107.501,240.309 127.97,229.497 132.5,227.467 C135.25,226.235 140.65,223.779 144.5,222.01 C148.35,220.241 156.9,216.62 163.5,213.964 C207.148,196.4 230.734,184.741 255.601,168.434 C291.751,144.73 316.378,116.718 325.877,88.5 C332.719,68.176 334.106,52.055 330.91,30 C329.561,20.694 324.788,8.52651283e-14 323.991,8.52651283e-14 C323.62,8.52651283e-14 322.756,1.913 322.07,4.25" id="Path" fill="url(#linearGradient-1)"></path>
                    <path d="M311.671,152.564 C306.928,162.509 291.201,178.534 275.895,189.018 C271.091,192.308 266.89,195 266.56,195 C266.23,195 264.13,196.155 261.894,197.567 C253.716,202.729 228.078,214.921 212,221.293 C197.636,226.986 176.241,234.134 158,239.335 C124.552,248.872 104.922,255.655 90.862,262.533 C54.212,280.463 34.654,303.117 28.438,334.838 C26.843,342.976 26.433,371 27.908,371 C28.408,371 30.452,368.025 32.45,364.389 C41.204,348.463 56.073,333.765 74.696,322.627 C90.407,313.23 112.518,304.838 143.593,296.477 C220.611,275.755 265.57,257.269 288.104,237.059 C300.372,226.055 308.801,212.706 313.214,197.291 C315.167,190.47 315.43,187.322 315.331,172 C315.269,162.375 314.82,153.226 314.333,151.67 L313.447,148.84 L311.671,152.564" id="Path" fill="url(#linearGradient-2)"></path>
                    <path d="M279.504,265.991 C275.221,275.489 260.497,286.28 243.719,292.217 C223.541,299.358 196.015,304.947 146.377,311.982 C116.454,316.224 112.247,317.067 95.5,322.18 C72.037,329.345 53.956,342.517 44.6,359.26 C40.969,365.758 33.765,385.811 34.585,387.137 C34.844,387.556 40.105,384.635 46.278,380.646 C75.809,361.563 91.057,357.339 148,352.474 C177.7,349.937 194.044,347.266 208.045,342.663 C242.696,331.27 268.615,310.619 278.85,286.251 C281.361,280.272 283.158,268.237 282.119,264.352 C281.436,261.799 281.378,261.836 279.504,265.991" id="Path" fill="url(#linearGradient-2)"></path>
                </g>
            </g>
        </g>
    </g>
</svg>