<svg xmlns="http://www.w3.org/2000/svg" viewBox="0 0 286 215">
      <path fill="#999" d="M124.7 154.2l-3 .4c-1.3 0-2.3.4-2.4.7 0 .3.7 2 2 3.7l2 3-.7 25.7c-.3 14-.6 25.8-.5 26 .3.6 4.2.7 5.8.3l1-.2-.3-9.5c-.7-26.4-1-35.8-.8-36 0 0 5 6.4 10.8 14.4l5.4 7.4 3.5 5 11.3 15.5 2.8 3.7h2.6c1.8 0 2.7 0 2.8-.4 0-.3.3-7 .4-15.2l.5-23.7.2-14.4v-5.3h-2.5c-4 .2-4 .2-4 3 .3 3.5 1 41.7 1 41.8-.2.2-3.3-4-7-9-3-4-5.7-8-8.6-11.8-1-1.3-4-5.8-7.2-10-9.7-13.3-10.6-14.5-11.2-15-.6-.2-2.3-.2-4 0M212.4 154.6c-6.4 1-9.5 1.7-13.6 3.8-6.8 3.3-12 9.6-14.2 17-1 4-1.4 11.6-.6 16 1.4 7.4 5.4 14 10.8 17.6 6.2 4.2 12.7 6 21.4 6 7 0 16-1.5 17-2.8.3-.3.3-4.8.2-12.7l-.2-12.2h-3c-3-.2-10.6.3-11 .7v1.2c.2.7.5 1 1.2 1 2 0 3 .4 3.7 1.5.6 1 .7 2.3.7 10v8.8h-4c-11.8 0-19.7-4.3-24-13-2.4-5-3-8-3-14.7-.2-6.6.4-9.3 2.6-13.7 2.5-5 7.3-8.6 13.4-10 10.2-2 19.2 2 21 9.6 0 1 .3 1.2 1 1l1-.2c.6 0 0-12-.6-12.7-1-1.2-15.2-2.7-19.6-2M7.8 155.3l-5.6 1c-2.2.4-2.2.4-2.2 1.7 0 1.3 0 1.4 1.2 1.2 2-.3 3.6.4 4.6 1.7.5.6 1.6 3.5 2.5 6.4 1 3 2.6 8.5 4 12.4 1 4 2.6 8.5 3 10.2l6.6 21 1 3 2.2.2c3.6 0 4-.2 5.2-3.6.5-1.6 2-6.4 3.6-10.7 1.5-4.3 3-8.4 3-9 .5-1.8 4.4-12.8 4.7-13 0-.2.6 1.3 1.2 3.2.5 2 2.6 8.6 4.5 14.8l4.6 14.7 1.2 3.4 1.7.2h3c2-.4.6 3 13.5-34.2l5.3-15c3.2-9 3.2-9 2.7-9.6-.3-.3-1.2-.3-3.4 0-3 .4-4 1.2-4 2.7 0 .4-1.7 6-3.6 12.8l-6 21.2-3 10c-.2.6-.5.2-1-2l-3.8-11.7L51 177c-.8-3-6.7-21.5-7-22-.2-.4-5.2 0-7 .4-1.6.4-1.7 1.3-.8 4.4 2 5.8 2.8 9 3 9.5 0 .8-.8 3-5.5 17.8l-4 12.7c-.3 1-.7 2-1 2-.2 0-2.7-7.5-5.3-16l-3-10c-2-6-6-19.5-6-19.7l-.6-.7c-.7-.6-1.3-.6-6 0M96 155.3c-3.7.5-8 1.2-8 1.5-.2 0 0 .6 0 1.3.2 1.2.3 1.3 2 1.3.8 0 2 .2 2.4.4 1.8 1 1.8 1.2 1.8 28.4 0 14 0 25.7.2 26 .3.4 6.6.2 8-.3.5-.3.5-2.5.5-29.4 0-26.2-.2-29-.7-29.3-.8-.3-2-.3-6.2.3M264.8 155c-11.4 1.5-17.4 7.8-17 18 .4 7.6 4.6 11.7 17 16.6 7.3 2.8 10 4.6 11.4 7.5 1.6 3 .7 8-1.8 10.5-2.6 2.8-9.6 4.2-14.2 2.8-5-1.4-7.6-4-9-9.5-.4-1.5-.5-1.6-1.4-1.5h-1v6.6c0 4.8.2 6.6.6 7 1.7 1.7 17 2.5 22.2 1 8.2-2 13-6.8 14-13.8 1-5.3-.5-9.4-4-13-2.5-2.4-5.4-4-13.6-7.2-5.6-2.3-7.4-3.3-9-5-3.3-3.3-3.3-8.5-.2-12 3.7-4.3 11.7-5 16.7-1.3 1.3 1 2 2 3 4 .8 1.5 1.4 3 1.4 3.5 0 .6 0 .7 1 .4.6 0 1-.4 1.2-.5v-6c-.2-4-.5-6-.8-6.2-1.2-1.2-12.3-2.4-16.6-1.8"/>
      <path fill="#aaa" d="M188.7 101.3c-1.6 3.6-7.2 7.7-13.5 10-7.7 2.6-18 4.7-37 7.4-11.2 1.6-12.8 2-19 4-9 2.6-15.8 7.6-19.4 14-1.4 2.4-4 10-3.8 10.5 0 0 2-1 4.4-2.5 11.2-7.2 17-8.8 38.5-10.7 11.2-1 17.4-2 22.7-3.7 13-4.3 23-12 26.7-21.3 1-2.3 1.7-7 1.3-8.3-.3-1-.3-1-1 .6 M200.7 58.4c-1.8 3.8-7.7 10-13.5 13.8-1.8 1.3-3.4 2.3-3.6 2.3 0 0-1 .4-1.7 1-3.2 2-13 6.5-19 9-5.4 2-13.5 4.8-20.4 6.8-12.7 3.6-20 6.2-25.4 8.8-14 7-21.3 15.5-23.7 27.5-.6 3-.7 13.7-.2 13.7.2 0 1-1.2 1.8-2.5 3.4-6 9-11.6 16-16 6-3.4 14.4-6.6 26-9.8 29.3-8 46.3-15 54.8-22.6 4.6-4 7.8-9.2 9.5-15 .7-2.6.8-3.8.8-9.6 0-3.7 0-7-.3-7.7l-.3-1-.7 1.4 M204.5 1.6c-.8 2.7-6 12.8-8.3 16.4-3.2 4.8-6 8-9.8 11.4-7 6.2-13.6 9.7-34.6 18.7-17.6 7.6-26.3 11.8-36.4 17.5C109.2 69 101 75 97 79.3c-13.3 14-17 29.3-11.5 46.4 1.3 4 3.8 9.2 4.5 9.4.2.2.4-1.5.4-4 0-8.6 2.7-14.6 9.4-22.4 4.2-4.8 12.8-11.5 19.7-15.4 3.8-2.2 11.6-6.3 13.3-7l4.5-2c1.5-.8 4.7-2 7.2-3C161 74.3 170 70 179.3 63.7c13.7-9 23-19.6 26.6-30.3 2.5-7.7 3-13.8 1.8-22-.5-3.7-2.3-11.5-2.6-11.5l-.7 1.6"/>
</svg>
