<svg width="286" height="215" viewBox="0 0 286 215" version="1" xmlns="http://www.w3.org/2000/svg"><path fill="#888" d="M125 154l-3 1h-3l2 4 2 3v26l-1 26h7l-1-10v-36a211 211 0 0 1 20 27l11 16 3 3h5a443 443 0 0 0 1-53v-6h-2c-4 1-4 1-4 3l1 42a196 196 0 0 1-16-21 8343 8343 0 0 1-18-25h-4M212 155a28 28 0 0 0-28 21v15c1 8 5 14 11 18s13 6 21 6c7 0 16-1 17-3v-25h-3l-11 1v1l1 1 4 2 1 10v8h-4c-12 0-20-4-24-12-3-5-3-9-3-15 0-7 0-10 2-14 3-5 8-9 14-10 10-2 19 2 21 10l1 1 1-1-1-12c-1-2-15-3-20-2M8 155l-6 1-2 2 1 1 5 2 2 6a1113 1113 0 0 0 14 44l1 3h2c4 0 4 0 5-3a536 536 0 0 1 13-30l5 15 4 15 1 3h5c2 0 1 3 13-34a3008 3008 0 0 1 8-25h-3l-4 3a279 279 0 0 1-10 34l-3 10-1-2a995 995 0 0 0-14-45h-7c-2 1-2 2-1 5l3 9-5 18a1178 1178 0 0 0-5 15 161 161 0 0 1-9-26 1160 1160 0 0 1-6-21H8M96 155l-8 2v1l2 1 2 1c2 1 2 1 2 28v26h8l1-30-1-29h-6M265 155c-12 2-18 8-17 18 0 8 4 12 17 17 7 2 10 4 11 7 2 3 1 8-2 11-2 2-9 4-14 2-5-1-7-4-9-9l-1-2h-1v14c2 2 17 3 23 1 8-2 13-7 14-14 0-5-1-9-5-13-2-2-5-4-13-7-6-2-7-3-9-5-3-3-3-9 0-12 4-4 12-5 16-1l4 4 1 3 1 1 1-1a49 49 0 0 0-1-12c-1-1-12-3-16-2"/><g fill="#aaa"><path d="M189 101c-2 4-7 8-14 10-7 3-18 5-37 8-11 1-13 2-19 4-9 2-16 7-19 14-2 2-4 10-4 10l4-2c12-8 17-9 39-11l23-4c13-4 23-12 26-21l2-8h-1"/><path d="M201 58a46 46 0 0 1-19 17 166 166 0 0 1-39 16c-13 4-21 6-26 9-14 7-21 15-23 27l-1 14 2-2c3-6 9-12 16-16 6-4 14-7 26-10 29-8 46-15 55-23 4-4 8-9 9-15l1-9v-8l-1-1v1"/><path d="M205 2l-9 16c-3 5-6 8-10 11-7 7-13 10-34 19l-37 18c-6 3-14 9-18 13-13 14-17 30-12 47l5 9v-4c1-9 3-15 10-22 4-5 13-12 20-16a303 303 0 0 1 25-12c16-7 25-11 34-17 14-9 23-20 27-30 3-8 3-14 2-23l-3-11v2"/></g></svg>
