<?xml version="1.0" encoding="UTF-8"?>
<svg width="286px" height="215px" viewBox="0 0 286 215" version="1.1" xmlns="http://www.w3.org/2000/svg" xmlns:xlink="http://www.w3.org/1999/xlink">
    <!-- Generator: Sketch 47.1 (45422) - http://www.bohemiancoding.com/sketch -->
    <title>Logo</title>
    <desc>Created with Sketch.</desc>
    <defs></defs>
    <g id="Seamless-Mountains" stroke="none" stroke-width="1" fill="none" fill-rule="evenodd">
        <g id="Standard" transform="translate(-385.000000, -36.000000)">
            <g id="Logo" transform="translate(385.000000, 36.000000)">
                <g id="WINGS" transform="translate(0.000000, 154.000000)" fill="#959595">
                    <path d="M124.652116,0.218771605 C124.235979,0.282783951 122.90623,0.442814815 121.696783,0.574228395 C120.384815,0.716561728 119.418997,1.01854938 119.301722,1.32204321 C119.193905,1.60181481 120.041312,3.24053086 121.185312,4.96321605 L123.264865,8.09567901 L122.616825,33.7006173 C122.260839,47.7833333 122.037638,59.5175494 122.121622,59.7762346 C122.285429,60.2826852 126.187286,60.4321728 127.828381,59.9953827 L128.734804,59.753642 L128.475664,50.3042901 C127.750828,23.8525062 127.540489,14.508963 127.666466,14.3831975 C127.81741,14.2333333 132.730481,20.7384938 138.460317,28.6737654 C140.436971,31.4116111 142.900884,34.7635988 143.935931,36.1232963 C144.970601,37.4833704 146.587862,39.7045988 147.529847,41.0601543 C149.32113,43.6383457 154.118061,50.2150494 158.813984,56.5315617 L161.576003,60.2469136 L164.216585,60.2469136 C165.99841,60.2469136 166.904833,60.094037 167.003571,59.7762346 C167.084151,59.5175494 167.270278,52.6972222 167.416683,44.6203704 C167.563087,36.5435185 167.789693,25.8685185 167.920209,20.8981481 C168.050725,15.9277778 168.157407,9.48888889 168.157407,6.58950617 L168.157407,1.31790123 L165.725272,1.38831481 C161.573354,1.50805556 161.571463,1.50918519 161.735648,4.23611111 C161.950526,7.81138889 162.738161,45.998142 162.599323,46.1359568 C162.532741,46.2022284 159.426463,42.0756914 155.695979,36.966 C152.839402,33.0520826 149.980915,29.1395472 147.120519,25.2283951 C146.134651,23.8822531 142.857757,19.3919753 139.838868,15.25 C130.108058,1.89853086 129.202013,0.70262963 128.55473,0.348302469 C127.950196,0.0180740741 126.312884,-0.0365246914 124.652116,0.218771605" id="Path"></path>
                    <path d="M212.419312,0.589666667 C206.031222,1.46061111 202.905651,2.32440123 198.757138,4.3641358 C191.95745,7.70746296 186.762161,13.9897099 184.611865,21.4689877 C183.458407,25.480679 183.176569,32.9629691 184.012627,37.3700309 C185.418794,44.7819074 189.449275,51.3424198 194.827664,54.9734259 C201.033788,59.1632222 207.539532,61.0011296 216.157362,60.9988704 C223.08,60.9973642 232.264913,59.5066296 233.22619,58.2290185 C233.469442,57.9055679 233.537159,53.3719877 233.415344,45.5252037 L233.22619,33.3240741 L230.338574,33.2148765 C227.31628,33.100784 219.550019,33.6317099 219.203868,33.9766235 C219.093402,34.0865741 219.114587,34.6201358 219.251534,35.162358 C219.428204,35.8631049 219.747873,36.1481481 220.357325,36.1481481 C222.293878,36.1481481 223.476087,36.6252284 224.085918,37.6531914 C224.62387,38.5591543 224.714286,39.9926543 224.714286,47.5965679 L224.714286,56.4814815 L220.586201,56.4814815 C208.855661,56.4814815 201.003902,52.2303086 196.724495,43.562284 C194.279497,38.6096111 193.594005,35.4135123 193.559958,28.8055556 C193.52591,22.2488086 194.069537,19.4766975 196.252368,15.075284 C198.831664,9.87446914 203.551799,6.36847531 209.660698,5.11609259 C219.929082,3.01121605 228.935434,7.10725309 230.568963,14.6253148 C230.798217,15.6803889 230.973373,15.8479506 231.655839,15.6657037 C232.103376,15.5463395 232.616738,15.446179 232.796434,15.4435432 C233.337034,15.4348827 232.66554,3.28308025 232.09127,2.68512963 C230.943108,1.49035802 216.836045,-0.0124259259 212.419312,0.589666667" id="Path"></path>
                    <path d="M7.75529101,1.3115 C5.88267196,1.56905556 3.37184921,1.98438272 2.17526455,2.23440741 C0.0223201058,2.68437654 -5.68434189e-12,2.70282716 -5.68434189e-12,4.02298765 C-5.68434189e-12,5.31114198 0.0419920635,5.35105556 1.21776984,5.17935185 C3.07601323,4.9078642 4.80638889,5.55062346 5.81533333,6.8877284 C6.31734656,7.5527037 7.44091799,10.4648889 8.31480688,13.367284 C9.18793915,16.2666667 10.9228545,21.8583333 12.1701323,25.7932099 C13.4174101,29.7280864 14.8508148,34.3030864 15.3554762,35.9598765 C16.7461323,40.5265926 20.7342434,53.2458457 21.9077513,56.8580247 L22.9477169,60.058642 L25.2145317,60.1689691 C28.8179048,60.3444383 29.2957063,60.0134568 30.3765291,56.5963272 C30.8876217,54.9798272 32.5237989,50.1837963 34.0120582,45.9382716 C35.4999392,41.6927469 36.8697884,37.6260802 37.0559153,36.9012346 C37.4966429,35.1830679 41.3932037,24.1929012 41.6534788,23.9338395 C41.7635661,23.8242654 42.3351878,25.2991852 42.9242116,27.2112716 C43.5128571,29.1237346 45.5874921,35.7716049 47.5342593,41.9845679 L52.1352275,56.6697531 L53.1967566,60.058642 L54.8768175,60.1802654 C55.8010212,60.2469136 57.2404788,60.2002222 58.0757804,60.0763395 C59.9132169,59.8033457 58.577037,63.1993889 71.4882725,25.9814815 C73.3204127,20.700463 75.6908836,13.9226852 76.7558175,10.9197531 C79.9631032,1.87631481 79.9642381,1.87292593 79.4928677,1.40375309 C79.1777381,1.09009259 78.3057407,1.08858642 76.1456085,1.39848148 C73.1467698,1.82849383 71.8783069,2.62676543 71.8783069,4.08474074 C71.8783069,4.42137037 70.3280053,10.1214815 68.4334444,16.7512778 C66.4071675,23.8430299 64.3859994,30.9362272 62.3699418,38.0308642 C60.9297275,43.104784 59.6071667,47.5950617 59.431254,48.0092593 C59.173627,48.6151173 58.9455079,48.2103333 58.2645556,45.9382716 C57.7988598,44.3850309 56.1396058,39.1322531 54.5768201,34.2654321 C53.0140344,29.3986111 51.4357381,24.3152778 51.069537,22.9691358 C50.2455847,19.9417284 44.3171376,1.52311728 44.0046561,1.02005556 C43.7602698,0.626567901 38.843037,0.917635802 36.8849206,1.44140741 C35.4261693,1.83188272 35.292627,2.73408025 36.2467169,5.75207407 C38.0966376,11.6043086 39.0166799,14.7401605 39.0628333,15.3494074 C39.1192011,16.0934568 38.4166852,18.4223765 33.6969286,33.1358025 C31.8700847,38.8310185 30.0863677,44.464858 29.7330291,45.6558642 C29.3800688,46.8468704 28.9593915,47.8209877 28.7989894,47.8209877 C28.5288783,47.8209877 25.992709,40.1534383 23.4429206,31.6296296 C22.8542751,29.6621914 21.4919921,25.2566358 20.415709,21.8395062 C18.4632672,15.6397222 14.3756614,2.24269136 14.3756614,2.04237037 C14.3756614,1.98400617 14.1081984,1.67034568 13.7813413,1.3446358 C13.1011455,0.667987654 12.4618069,0.664598765 7.75529101,1.3115" id="Path"></path>
                    <path d="M96.0899471,1.31112346 C92.2611032,1.81305556 88.1072937,2.54844444 87.892037,2.76232099 C87.820537,2.8338642 87.8693386,3.4272963 88.0009894,4.0817284 C88.226082,5.20269753 88.3373042,5.27160494 89.9201402,5.27160494 C90.8439656,5.27160494 91.9437037,5.45460494 92.3636243,5.6782716 C94.2029524,6.65803704 94.2195979,6.91634568 94.1878201,34.0914691 C94.1715529,48.0664938 94.2774788,59.692642 94.4227487,59.9272284 C94.6966429,60.3681605 100.965944,60.1516481 102.26278,59.6564938 C102.851804,59.431321 102.899471,57.2383333 102.899471,30.3117284 C102.899471,4.12239506 102.839698,1.18724074 102.300989,0.981648148 C101.520921,0.683802469 100.438963,0.741037037 96.0899471,1.31112346" id="Path"></path>
                    <path d="M264.814815,0.997839506 C253.382381,2.52434568 247.381677,8.84725926 247.862884,18.8606728 C248.235138,26.6136975 252.429804,30.7485185 264.856807,35.6123272 C272.051447,38.4281173 274.772608,40.2114259 276.238548,43.0716481 C277.751775,46.0237469 276.888101,50.9466728 274.404138,53.5286296 C271.760151,56.276642 264.763365,57.6626975 260.200606,56.342537 C255.094976,54.865358 252.568265,52.1790988 251.189336,46.7625247 C250.81746,45.3026667 250.672947,45.1509198 249.75631,45.2563519 L248.736772,45.3734568 L248.804111,51.9226728 C248.854426,56.795142 249.000452,58.599537 249.374598,58.9723148 C251.144696,60.733784 266.43132,61.540716 271.624339,60.1463765 C279.827923,57.9435988 284.616532,53.1769383 285.663307,46.1709753 C286.45359,40.8824259 285.138974,36.7973086 281.472423,33.1478519 C279.112545,30.7989753 276.173101,29.232179 268.036476,25.9863765 C262.373601,23.7278704 260.554701,22.739821 258.87237,21.0096049 C255.679082,17.7257716 255.653735,12.4526605 258.814111,8.87888889 C262.521519,4.68683333 270.515143,4.12804321 275.463775,7.71461728 C276.770825,8.66162346 277.572458,9.68544444 278.584807,11.6995741 C279.334233,13.1903086 279.94709,14.7443025 279.94709,15.1532284 C279.94709,15.7752778 280.115815,15.8543519 280.983651,15.637463 C281.553759,15.4951296 282.106844,15.2390802 282.213148,15.0681296 C282.319074,14.8975556 282.289188,12.1743951 282.146566,9.0167037 C281.963466,4.97112346 281.734968,3.12417901 281.372929,2.76382716 C280.223632,1.62026543 269.066606,0.430012346 264.814815,0.997839506" id="Path"></path>
                </g>
                <g id="Flame" transform="translate(83.000000, 0.000000)" fill-opacity="0.461645154" fill="#777777">
                    <path d="M105.696455,101.278536 C104.075861,104.877005 98.5046173,108.965348 92.1561849,111.214675 C84.521266,113.920157 74.1060228,116.037639 55.3240768,118.702961 C44.0018606,120.31011 42.4100228,120.629494 36.07332,122.566636 C27.1954282,125.281211 20.3539687,130.271634 16.8138606,136.614987 C15.4399687,139.076858 12.7141309,146.674257 13.0244011,147.176634 C13.1224011,147.335378 15.1130498,146.228711 17.4487795,144.717415 C28.6226714,137.487515 34.3921849,135.887185 55.9381849,134.044002 C67.1760228,133.082819 73.360239,132.070868 78.6579146,130.326948 C91.7691038,126.010528 101.576293,118.186567 105.448996,108.95436 C106.399104,106.689121 107.07905,102.129469 106.685915,100.657574 C106.427482,99.6903295 106.405536,99.7043475 105.696455,101.278536" id="Lower"></path>
                    <path d="M117.715216,58.4108969 C115.920567,62.1787191 109.96981,68.2500464 104.178351,72.2220773 C102.360621,73.4685464 100.771053,74.4884536 100.646189,74.4884536 C100.521324,74.4884536 99.7267291,74.9260438 98.880675,75.4610026 C95.7862967,77.4167088 86.0854318,82.0358428 80.0018642,84.4499768 C74.5668372,86.6068608 66.4714318,89.3149948 59.5694318,91.2854768 C46.9134318,94.8987216 39.4858642,97.4685696 34.1658642,100.07441 C20.2982967,106.867477 12.8979723,115.450307 10.5459723,127.468314 C9.94245882,130.551526 9.78732368,141.168866 10.3454318,141.168866 C10.534621,141.168866 11.3080264,140.04174 12.0640264,138.664183 C15.3763507,132.630363 21.0024588,127.061791 28.0489994,122.841982 C33.9937021,119.281778 42.3600264,116.102335 54.1181345,112.934637 C83.2600804,105.083776 100.271594,98.0800593 108.797972,90.4231778 C113.439918,86.2541366 116.62927,81.1966546 118.299053,75.3564356 C119.038026,72.7721907 119.13754,71.5795206 119.10008,65.7745361 C119.076621,62.127951 118.906729,58.6617062 118.722459,58.0721907 L118.387216,57 L117.715216,58.4108969" id="Middle"></path>
                    <path d="M121.500188,1.61018041 C120.700296,4.34142526 115.614891,14.4029691 113.218242,17.996134 C109.995215,22.8281907 107.241755,26.0311237 103.417107,29.3965902 C96.4034851,35.568317 89.8151608,39.1262474 68.8087283,48.086049 C51.1721338,55.608433 42.5015932,59.7585309 32.3655932,65.5294175 C26.1511067,69.0680258 18.1272148,75.128366 14.1111067,79.3171082 C0.729376999,93.2733943 -3.10473111,108.569729 2.48051213,125.717204 C3.7620797,129.651727 6.29191754,134.889549 7.02786348,135.131644 C7.24580943,135.20325 7.4107824,133.53624 7.43802565,130.991018 C7.52959321,122.424479 10.0760797,116.367549 16.8452689,108.614436 C21.0218094,103.831253 29.6261338,97.0855438 36.5277554,93.1843608 C40.3119175,91.0449046 48.0569446,86.9486057 49.7709986,86.1795077 C50.8115392,85.7127448 52.8547824,84.78225 54.3115392,84.1120361 C55.7682959,83.4418222 59.0034311,82.0699485 61.5007283,81.0636804 C78.0161878,74.4092784 86.9406202,69.9920799 96.3497554,63.8139124 C110.028134,54.8332732 119.346458,44.2204794 122.940674,33.5296392 C125.529539,25.829567 126.05435,19.7218686 124.845053,11.3659794 C124.33462,7.84025258 122.52862,0 122.227053,0 C122.086674,0 121.759755,0.724770619 121.500188,1.61018041" id="Upper"></path>
                </g>
            </g>
        </g>
    </g>
</svg>