<?xml version="1.0" encoding="UTF-8"?>
<svg width="147px" height="174px" viewBox="0 0 147 174" version="1.1" xmlns="http://www.w3.org/2000/svg" xmlns:xlink="http://www.w3.org/1999/xlink">
    <!-- Generator: Sketch 48.2 (47327) - http://www.bohemiancoding.com/sketch -->
    <title>Logo</title>
    <desc>Created with Sketch.</desc>
    <defs>
        <linearGradient x1="-26.9750641%" y1="65.8987116%" x2="124.217093%" y2="65.8987105%" id="linearGradient-1">
            <stop stop-color="#FFFFFF" offset="0%"></stop>
            <stop stop-color="#FFFFFF" offset="100%"></stop>
        </linearGradient>
    </defs>
    <g id="Scenic-Flights" stroke="none" stroke-width="1" fill="none" fill-rule="evenodd" transform="translate(-61.000000, -27.000000)">
        <g id="Hero" transform="translate(-21.000000, -19.000000)" fill="white" fill-rule="nonzero">
            <g id="Group-2" transform="translate(82.000000, 46.000000)">
                <g id="logo-gray.819d2187" transform="translate(73.500000, 87.000000) scale(-1, 1) translate(-73.500000, -87.000000) ">
                    <path d="M108.134203,131.592668 C99.0991067,134.663951 87.013199,137.144603 64.7188063,140.334012 C51.5768484,142.224033 49.6994259,142.696538 42.4244135,145.059063 C31.8639116,148.130346 23.8848658,154.03666 19.6606651,161.596741 C18.0179203,164.431772 14.9671087,173.409369 15.2017865,174 C15.2017865,174 17.5485647,172.818737 20.3646985,171.046843 C33.5066564,162.541752 40.3123131,160.651731 65.5401786,158.407332 C78.6821365,157.226069 85.9571489,156.044807 92.1761111,154.03666 C107.430169,148.95723 119.16406,139.861507 123.5056,128.875764 C124.678989,126.158859 125.500361,120.606925 125.031006,119.071283 C124.678989,117.89002 124.678989,117.89002 123.857617,119.780041 C122.097533,124.032587 115.526554,128.875764 108.134203,131.592668 Z M122.214872,85.4052953 C120.102771,86.9409369 118.225349,88.1221996 117.990671,88.1221996 C117.990671,88.1221996 116.817282,88.5947047 115.99591,89.3034623 C112.241065,91.6659878 100.741851,96.9816701 93.7015169,99.9348269 C87.3652158,102.297352 77.8607641,105.604888 69.7643794,107.967413 C54.8623379,112.219959 46.2965975,115.291242 39.9602964,118.362525 C23.5328491,126.631365 14.9671087,136.672098 12.1509749,150.847251 C11.4469414,154.391039 11.3296025,167.03055 11.9162971,167.03055 C12.1509749,167.03055 13.0896861,165.613035 14.0283974,164.077393 C18.0179203,156.989817 24.5888993,150.374745 32.8026229,145.177189 C39.8429575,141.160896 49.6994259,137.380855 63.3107394,133.600815 C97.6910398,124.150713 117.638654,115.881874 127.612462,106.904277 C133.010052,102.179226 136.764897,96.0366599 138.759658,89.185336 C139.58103,86.114053 139.698369,84.6965377 139.698369,77.8452138 C139.698369,73.4745418 139.698369,69.5763747 139.346353,68.7494908 L138.994336,67.5682281 L138.172964,69.2219959 C135.943524,73.592668 129.020529,80.9164969 122.214872,85.4052953 Z M132.775374,21.3808554 C129.020529,27.0509165 125.735039,30.8309572 121.276161,34.8472505 C113.062437,42.1710794 105.318069,46.305499 80.6768979,56.9368635 C60.0252499,65.9144603 49.8167648,70.8757637 37.9655349,77.6089613 C30.6905226,81.6252546 21.068732,88.712831 16.3751756,93.7922607 C0.769100664,110.329939 -3.57243898,128.403259 2.88120103,148.602851 C4.40660685,153.327902 7.34007959,159.470468 8.16145195,159.706721 C8.39612977,159.942974 8.63080759,157.934827 8.63080759,154.98167 C8.63080759,144.822811 11.7989581,137.735234 19.6606651,128.521385 C24.5888993,122.851324 34.6800455,114.936864 42.7764302,110.329939 C47.2353088,107.731161 56.3877437,102.887984 58.3825052,102.0611 L63.6627561,99.6985743 C65.4228397,98.7535642 69.1776848,97.3360489 72.1111576,96.1547862 C91.4720776,87.885947 102.032579,82.8065173 112.945098,75.3645621 C129.020529,64.7331976 139.933047,52.2118126 144.157248,39.5723014 C147.090721,30.4765784 147.677415,23.2708758 146.269348,13.5845214 C145.682654,9.21384929 143.570553,0 143.218537,0 L142.397164,1.89002037 C141.575792,5.19755601 135.474169,17.1283096 132.775374,21.3808554 Z" id="Logo"></path>
                </g>
            </g>
        </g>
    </g>
</svg>
